<?xml version="1.0" encoding="utf-8"?>
<!-- Generator: Adobe Illustrator 23.0.1, SVG Export Plug-In . SVG Version: 6.00 Build 0)  -->
<svg version="1.1" id="Camada_1" xmlns="http://www.w3.org/2000/svg" xmlns:xlink="http://www.w3.org/1999/xlink" x="0px" y="0px"
	 viewBox="0 0 433.4 43.6" style="enable-background:new 0 0 433.4 43.6;" xml:space="preserve">
<style type="text/css">
	.st0{fill:#FFB74F;}
	.st1{fill:#0E0030;}
</style>
<path class="st0" d="M187.2,18h3c0,0,3-7,8-7s8-10,8-10s-6.8,7-10,7C188.2,8,187.2,18,187.2,18z"/>
<path class="st0" d="M176.2,18h3c0,0,3-7,8-7s8-10,8-10s-6.8,7-10,7C177.2,8,176.2,18,176.2,18z"/>
<path class="st0" d="M165.7,18h3c0,0,3-7,8-7s8-10,8-10s-6.8,7-10,7C166.7,8,165.7,18,165.7,18z"/>
<g>
	<path class="st1" d="M23.8,40.2v3.1H0V9.7h23v3.1H3.5v12h17.4v3H3.5v12.5L23.8,40.2L23.8,40.2z"/>
	<path class="st1" d="M31.9,42.7c-1.9-0.6-3.3-1.3-4.4-2.2l1.5-2.7c1.1,0.8,2.4,1.5,4,2c1.6,0.5,3.3,0.8,5,0.8c2.3,0,4-0.4,5.1-1.1
		c1.1-0.7,1.7-1.7,1.7-3c0-0.9-0.3-1.7-0.9-2.2c-0.6-0.5-1.4-0.9-2.3-1.2c-0.9-0.3-2.2-0.5-3.7-0.8c-2-0.4-3.7-0.8-4.9-1.2
		c-1.2-0.4-2.3-1.1-3.2-2c-0.9-1-1.3-2.3-1.3-4c0-2.1,0.9-3.8,2.6-5.2c1.8-1.3,4.2-2,7.3-2c1.6,0,3.3,0.2,4.9,0.6s3,1,4,1.7L45.8,23
		c-2.1-1.4-4.6-2.2-7.4-2.2c-2.2,0-3.8,0.4-4.9,1.2s-1.7,1.8-1.7,3c0,1,0.3,1.7,0.9,2.3c0.6,0.6,1.4,1,2.3,1.3
		c0.9,0.3,2.2,0.6,3.8,0.8c2,0.4,3.6,0.8,4.8,1.2c1.2,0.4,2.3,1,3.1,2c0.9,0.9,1.3,2.2,1.3,3.8c0,2.2-0.9,4-2.8,5.3
		c-1.8,1.3-4.4,1.9-7.7,1.9C35.7,43.6,33.8,43.3,31.9,42.7z"/>
	<path class="st1" d="M58.2,41.9c-2-1.1-3.5-2.6-4.6-4.6s-1.7-4.2-1.7-6.6c0-2.5,0.6-4.7,1.7-6.6c1.1-2,2.7-3.5,4.6-4.6
		c2-1.1,4.2-1.6,6.7-1.6c2.2,0,4.1,0.4,5.8,1.3c1.7,0.8,3.1,2.1,4.1,3.7l-2.5,1.7c-0.8-1.2-1.9-2.2-3.2-2.8
		c-1.3-0.6-2.7-0.9-4.2-0.9c-1.8,0-3.5,0.4-4.9,1.2c-1.5,0.8-2.6,2-3.4,3.5c-0.8,1.5-1.2,3.2-1.2,5.1c0,2,0.4,3.7,1.2,5.2
		s2,2.6,3.4,3.5c1.5,0.8,3.1,1.2,4.9,1.2c1.5,0,2.9-0.3,4.2-0.9c1.3-0.6,2.3-1.5,3.2-2.8l2.5,1.7c-1,1.6-2.4,2.9-4.1,3.7
		s-3.7,1.3-5.8,1.3C62.4,43.6,60.2,43,58.2,41.9z"/>
	<path class="st1" d="M84.8,41.9c-2-1.1-3.5-2.6-4.6-4.6s-1.7-4.2-1.7-6.6c0-2.5,0.6-4.7,1.7-6.6c1.1-2,2.7-3.5,4.6-4.6
		c2-1.1,4.1-1.6,6.6-1.6c2.4,0,4.6,0.5,6.6,1.6s3.5,2.6,4.6,4.6s1.7,4.2,1.7,6.6c0,2.5-0.6,4.7-1.7,6.6c-1.1,2-2.6,3.5-4.6,4.6
		s-4.1,1.7-6.6,1.7C89,43.6,86.8,43,84.8,41.9z M96.2,39.3c1.4-0.8,2.5-2,3.3-3.5s1.2-3.2,1.2-5.1s-0.4-3.6-1.2-5.1
		c-0.8-1.5-1.9-2.7-3.3-3.5s-3-1.2-4.8-1.2s-3.4,0.4-4.8,1.2c-1.4,0.8-2.5,2-3.4,3.5c-0.8,1.5-1.2,3.2-1.2,5.1s0.4,3.6,1.2,5.1
		c0.8,1.5,1.9,2.7,3.4,3.5c1.4,0.8,3,1.2,4.8,1.2S94.8,40.1,96.2,39.3z"/>
	<path class="st1" d="M111.2,7.7h3.4v35.6h-3.4V7.7z"/>
	<path class="st1" d="M140.5,20.3c1.8,1.6,2.6,4.1,2.6,7.3v15.6h-3.2v-3.9c-0.8,1.3-1.9,2.3-3.4,3.1c-1.5,0.7-3.3,1.1-5.3,1.1
		c-2.8,0-5.1-0.7-6.7-2c-1.7-1.3-2.5-3.1-2.5-5.3c0-2.1,0.8-3.9,2.3-5.2c1.6-1.3,4-2,7.4-2h8v-1.5c0-2.2-0.6-3.8-1.8-5
		c-1.2-1.1-3-1.7-5.3-1.7c-1.6,0-3.1,0.3-4.6,0.8s-2.7,1.3-3.8,2.2l-1.5-2.5c1.3-1.1,2.8-1.9,4.6-2.5s3.7-0.9,5.7-0.9
		C136.2,17.9,138.7,18.7,140.5,20.3z M136.6,39.5c1.4-0.9,2.4-2.2,3.1-3.8v-4.1h-7.9c-4.3,0-6.5,1.5-6.5,4.5c0,1.5,0.6,2.6,1.7,3.5
		c1.1,0.8,2.7,1.3,4.7,1.3C133.6,40.9,135.3,40.4,136.6,39.5z"/>
	<path class="st1" d="M200.6,9.7v33.6h-3.4V16.4L184,39h-1.7l-13.2-22.5v26.7h-3.4V9.7h2.9l14.6,24.9l14.4-24.9
		C197.6,9.7,200.6,9.7,200.6,9.7z"/>
	<path class="st1" d="M214.6,41.9c-2-1.1-3.5-2.6-4.6-4.6s-1.7-4.2-1.7-6.6c0-2.5,0.6-4.7,1.7-6.6c1.1-2,2.7-3.5,4.6-4.6
		c2-1.1,4.1-1.6,6.6-1.6c2.4,0,4.6,0.5,6.6,1.6s3.5,2.6,4.6,4.6s1.7,4.2,1.7,6.6c0,2.5-0.6,4.7-1.7,6.6c-1.1,2-2.6,3.5-4.6,4.6
		s-4.1,1.7-6.6,1.7C218.7,43.6,216.5,43,214.6,41.9z M226,39.3c1.4-0.8,2.5-2,3.3-3.5s1.2-3.2,1.2-5.1s-0.4-3.6-1.2-5.1
		s-1.9-2.7-3.3-3.5c-1.4-0.8-3-1.2-4.8-1.2s-3.4,0.4-4.8,1.2c-1.4,0.8-2.5,2-3.4,3.5c-0.8,1.5-1.2,3.2-1.2,5.1s0.4,3.6,1.2,5.1
		s1.9,2.7,3.4,3.5c1.4,0.8,3,1.2,4.8,1.2C222.9,40.5,224.5,40.1,226,39.3z"/>
	<path class="st1" d="M261.4,18.1l-11.2,25.2h-3.5l-11.2-25.2h3.6l9.5,21.5l9.6-21.5C258.2,18.1,261.4,18.1,261.4,18.1z"/>
	<path class="st1" d="M266.2,11.8c-0.5-0.5-0.7-1.1-0.7-1.7c0-0.6,0.2-1.2,0.7-1.7s1.1-0.7,1.8-0.7c0.7,0,1.3,0.2,1.8,0.7
		s0.7,1,0.7,1.7s-0.2,1.3-0.7,1.8s-1.1,0.7-1.8,0.7C267.2,12.5,266.6,12.3,266.2,11.8z M266.2,18.1h3.4v25.2h-3.4V18.1z"/>
	<path class="st1" d="M318.1,20.6c1.8,1.8,2.7,4.5,2.7,8.1v14.6h-3.4V29c0-2.6-0.6-4.6-1.9-6s-3-2.1-5.4-2.1c-2.6,0-4.7,0.8-6.2,2.4
		s-2.3,3.8-2.3,6.7v13.2h-3.4V29c0-2.6-0.6-4.6-1.9-6s-3.1-2.1-5.4-2.1c-2.6,0-4.6,0.8-6.2,2.4c-1.5,1.6-2.3,3.8-2.3,6.7v13.2H279
		V18.1h3.3v4.6c0.9-1.5,2.1-2.7,3.7-3.6c1.6-0.8,3.4-1.2,5.5-1.2s3.9,0.4,5.5,1.3s2.7,2.2,3.5,4c0.9-1.7,2.3-3,4-3.9s3.7-1.4,6-1.4
		C313.8,17.9,316.3,18.8,318.1,20.6z"/>
	<path class="st1" d="M352.1,31.7H331c0.2,2.6,1.2,4.7,3,6.4c1.8,1.6,4.1,2.4,6.9,2.4c1.6,0,3-0.3,4.3-0.8c1.3-0.6,2.4-1.4,3.4-2.5
		l1.9,2.2c-1.1,1.3-2.5,2.4-4.2,3.1c-1.7,0.7-3.5,1.1-5.5,1.1c-2.6,0-4.9-0.6-6.9-1.7c-2-1.1-3.6-2.6-4.7-4.6s-1.7-4.2-1.7-6.6
		c0-2.5,0.5-4.7,1.6-6.6c1.1-2,2.5-3.5,4.4-4.6s4-1.6,6.3-1.6s4.4,0.5,6.3,1.6s3.3,2.6,4.4,4.5s1.6,4.2,1.6,6.6L352.1,31.7z
		 M333.8,23.1c-1.6,1.6-2.6,3.6-2.8,6.1h17.9c-0.2-2.5-1.2-4.5-2.8-6.1c-1.6-1.6-3.7-2.3-6.2-2.3C337.5,20.8,335.5,21.6,333.8,23.1z
		"/>
	<path class="st1" d="M379.5,20.6c1.9,1.8,2.8,4.5,2.8,8v14.6h-3.4V29c0-2.6-0.7-4.6-2-6s-3.2-2.1-5.6-2.1c-2.7,0-4.9,0.8-6.5,2.4
		s-2.4,3.8-2.4,6.7v13.2H359V18.1h3.3v4.7c0.9-1.5,2.2-2.7,3.9-3.6c1.6-0.8,3.6-1.3,5.7-1.3C375.2,17.9,377.7,18.8,379.5,20.6z"/>
	<path class="st1" d="M404.9,41.8c-0.6,0.6-1.4,1-2.4,1.3c-0.9,0.3-1.9,0.5-3,0.5c-2.4,0-4.2-0.6-5.5-1.9c-1.3-1.3-1.9-3.1-1.9-5.4
		V20.9h-4.5V18h4.5v-5.5h3.4V18h7.7v2.9h-7.7V36c0,1.5,0.4,2.6,1.1,3.4c0.8,0.8,1.8,1.2,3.2,1.2c0.7,0,1.4-0.1,2-0.3
		c0.7-0.2,1.2-0.5,1.7-1L404.9,41.8z"/>
	<path class="st1" d="M413.9,41.9c-2-1.1-3.5-2.6-4.6-4.6s-1.7-4.2-1.7-6.6c0-2.5,0.6-4.7,1.7-6.6c1.1-2,2.7-3.5,4.6-4.6
		c2-1.1,4.1-1.6,6.6-1.6c2.4,0,4.6,0.5,6.6,1.6s3.5,2.6,4.6,4.6s1.7,4.2,1.7,6.6c0,2.5-0.6,4.7-1.7,6.6c-1.1,2-2.6,3.5-4.6,4.6
		s-4.1,1.7-6.6,1.7C418.1,43.6,415.9,43,413.9,41.9z M425.3,39.3c1.4-0.8,2.5-2,3.3-3.5s1.2-3.2,1.2-5.1s-0.4-3.6-1.2-5.1
		c-0.8-1.5-1.9-2.7-3.3-3.5s-3-1.2-4.8-1.2s-3.4,0.4-4.8,1.2c-1.4,0.8-2.5,2-3.4,3.5c-0.8,1.5-1.2,3.2-1.2,5.1s0.4,3.6,1.2,5.1
		c0.8,1.5,1.9,2.7,3.4,3.5c1.4,0.8,3,1.2,4.8,1.2S423.9,40.1,425.3,39.3z"/>
</g>
</svg>
